<?xml version="1.0" encoding="utf-8"?>
<!-- Generator: Adobe Illustrator 22.0.0, SVG Export Plug-In . SVG Version: 6.00 Build 0)  -->
<svg version="1.1" id="Слой_1" xmlns="http://www.w3.org/2000/svg" xmlns:xlink="http://www.w3.org/1999/xlink" x="0px" y="0px"
	 viewBox="0 0 550 150" style="enable-background:new 0 0 550 150; fill: #fff" xml:space="preserve">
<path d="M409.7,4.8c0-2.8,0-5.6,0-8.4c0-4.7,2.4-7.1,7.1-7.1c9.6,0,19.2,0,28.7,0c4.7,0,7,2.4,7.1,7.1c0,5.5,0,11,0,16.5
	c0,4.2-1.8,6.2-5.9,7.1c-6.5,1.3-13,2.7-20,4.1c0.9,0.8,1.4,1.4,2,1.9c6.4,5.2,12.9,10.3,19.3,15.4c12.2,9.8,19,22.7,22.1,37.8
	c0.6,3,0.8,6.1,0.8,9.2c0.1,33.9-0.1,67.8,0.1,101.7c0.1,10.4-7.9,20-19.8,19.8c-15.5-0.3-31-0.1-46.5-0.1
	c-11.8,0-19.5-7.7-19.6-19.6c0-3.6,0-7.1,0-10.9c-73.6,0-146.8,0-220.5,0c0,4.2,0.1,8.2,0,12.3c-0.2,7.7-4.8,14.3-11.9,16.9
	c-2.1,0.8-4.5,1.2-6.8,1.2c-16.2,0.1-32.3,0.1-48.5,0C87,209.7,79,201.7,79,191.2c0-34.7-0.4-69.3,0.1-104c0.3-18.1,8.2-33.3,22-45
	c6.5-5.6,13.4-10.7,20.1-16.1c0.6-0.5,1.1-1.1,2.1-2c-5.8-1.2-11.1-2.4-16.4-3.3c-7.6-1.4-10-1.8-9.6-11.3c0.2-4.5,0-9,0-13.5
	c0-4.1,2.5-6.6,6.5-6.6c9.9-0.1,19.8-0.1,29.7,0c4.1,0,6.5,2.5,6.6,6.6c0.1,3,0,6,0,9.6c4.7-5.4,7.9-10.9,10.6-16.6
	c3.4-7.2,6.4-14.6,10-21.8c8.5-17,22.4-26.5,41.3-26.7c48.4-0.4,96.8-0.4,145.2,0c19.4,0.2,33.4,10,41.9,27.4
	c5,10.1,9.8,20.4,14.9,30.5c1.2,2.4,3.1,4.5,4.7,6.7C409.2,4.9,409.5,4.9,409.7,4.8z M91.5,118.1c-0.1,0.5-0.2,0.8-0.2,1
	c0,9.7-0.1,19.3,0,29c0.1,10.8,8,18.7,18.8,18.8c13.6,0,27.2,0.1,40.7,0c1.2,0,2.7-0.7,3.6-1.5c4.1-3.9,8-8,12.1-11.9
	c7.4-7.1,16.3-10.9,26.6-10.9c53.2-0.1,106.5-0.1,159.7,0c11,0,20.4,4,28.3,11.8c3.7,3.7,7.4,7.5,11.2,11.1c1,0.9,2.6,1.6,3.9,1.6
	c14.4,0.1,28.8,0.1,43.2,0.1c11.3,0,19.2-7.8,19.2-19.2c0-9.1,0-18.2,0-27.2c0-0.8-0.1-1.6-0.2-2.4c-2,0-3.8,0-5.9,0
	c0,2,0,3.9,0,5.8c-0.2,13.9-10.8,24.5-24.6,24.7c-5.7,0.1-11.5,0-17.2,0c-4.4,0-7.2-2.4-7.1-6.2c0.1-3.7,2.8-6,7.1-6
	c5.8,0,11.7,0,17.5-0.1c5.4-0.1,10.2-3.5,11.4-8.7c0.7-3,0.6-6.2,0.9-9.6c-3.7,0-6.9,0.1-10,0c-7.2-0.2-13.4,2.2-18.8,6.7
	c-3.1,2.6-6.7,2.5-9.1-0.3c-2.3-2.7-2-6.4,1.1-9c7.2-6.2,15.6-9.6,25.1-9.7c9-0.1,18,0,27,0c0.9,0,1.8,0,2.9,0
	c-0.5-8.4,0.8-16.5-1-25c-5,4.6-10.5,6.6-16.6,6.6c-16.4,0.1-32.8,0.1-49.2-0.1c-1.8,0-3.8-1.1-5.3-2.2c-1.9-1.4-3.5-3.3-5.2-5.1
	c-2.3-2.3-2.3-2.3-4.6-0.1c-1.4,1.4-2.9,2.8-4.2,4.3c-2.1,2.4-4.6,3.3-7.7,3.2c-21.9-0.1-43.8,0-65.7-0.1c-2.4,0-4,0.7-5.7,2.4
	c-4.3,4.5-8.8,8.9-13.2,13.3c-3.7,3.7-6.9,3.7-10.6,0.1c-4.6-4.5-9.2-9-13.6-13.6c-1.5-1.5-2.9-2.1-5-2.1c-22.1,0.1-44.2,0-66.2,0.1
	c-3.1,0-5.5-0.9-7.5-3.2c-1.6-1.8-3.4-3.4-5.1-5.2c-1-1.1-1.8-1.1-2.9,0c-1.9,2.1-3.8,4.2-6.1,5.9c-1.5,1.1-3.5,2.2-5.3,2.3
	c-16.4,0.2-32.8,0.1-49.2,0.1c-5.7,0-10.8-1.7-15.2-5.4c-0.4-0.3-0.9-0.5-1.9-1.1c0,8.5,0,16.5,0,24.8c0.8,0,1.6,0,2.5,0
	c9.1,0,18.2-0.1,27.2,0c9.5,0.2,17.9,3.6,25,9.9c2.9,2.5,3.1,6.3,0.8,8.9c-2.3,2.6-5.9,2.9-8.7,0.4c-8.4-7.5-18.4-7.5-29-6.7
	c0,1.8,0,3.5,0,5.3c0.1,7.7,5.2,12.8,12.9,12.9c5.6,0,11.2,0,16.7,0c4.3,0,7.1,2.4,7.1,6.1c0,3.7-2.7,6.2-6.9,6.2
	c-5.7,0-11.5,0-17.2,0c-14-0.1-24.6-10.6-24.8-24.7c0-1.9,0-3.8,0-5.8C95.2,118.1,93.4,118.1,91.5,118.1z M426.2,39.8
	c-1.3-1.1-1.9-1.7-2.7-2.2c-8.1-6.1-15.2-13.3-21.3-21.3c-1.4-1.9-2.9-2.5-5.2-2.5c-81.6,0.1-163.1,0-244.7,0c-1.7,0-2.9,0.5-4,1.9
	c-6.4,8.4-13.7,15.9-22.2,22.2c-0.6,0.5-1.2,1.1-1.9,1.7c0.7,0.4,1.1,0.8,1.5,0.9c12.2,4.9,24.4,9.7,36.6,14.6
	c3.1,1.2,6.1,2.4,8.5,5c4.2,4.5,8.7,8.7,13,13.1c1.3,1.3,2.6,1.8,4.4,1.8c22.2-0.1,44.3,0,66.5-0.1c3.1,0,5.4,0.8,7.5,3.1
	c3.6,3.7,7.4,7.2,10.9,11c1.5,1.6,2.4,1.4,3.8-0.1c3.4-3.6,7-6.9,10.4-10.5c2.3-2.5,4.9-3.6,8.4-3.5c22.1,0.1,44.2,0,66.2,0.1
	c1.7,0,3-0.5,4.2-1.7c4.6-4.7,9.2-9.4,13.9-14c1.1-1.1,2.4-2.1,3.9-2.6c10.9-4.5,21.9-8.8,32.9-13.2
	C419.7,42.4,422.7,41.2,426.2,39.8z M158.5,1.3c77.8,0,155.3,0,232.9,0c-0.1-0.5-0.1-0.7-0.2-0.9c-4.5-9.6-8.8-19.2-13.6-28.6
	c-6.2-12.2-16.4-19-30-19.1c-48.5-0.3-97-0.3-145.4,0c-13.6,0.1-23.7,7-29.9,19.1c-3,5.9-5.6,12.1-8.4,18.1
	C162.2-6.3,160.4-2.6,158.5,1.3z M170.9,166.7c68.6,0,136.7,0,205.2,0c-6-7.4-13.2-12-22.6-12c-53.3,0-106.6,0-159.9,0
	C184.1,154.7,176.9,159.3,170.9,166.7z M458.5,173.4c-0.5,0.2-0.9,0.4-1.2,0.6c-5.8,3.9-12.2,5.3-19.2,5.2c-12.6-0.2-25.1,0-37.7,0
	c-0.9,0-1.8,0.1-2.8,0.1c0,4.2-0.1,8.1,0,12c0.1,3.7,2.6,6.2,6.4,6.3c16.1,0,32.3,0,48.4,0c3.9,0,6.3-2.6,6.4-6.5
	c0.1-5.2,0-10.5,0-15.7C458.7,174.7,458.6,174.2,458.5,173.4z M91.3,174c0,5.4,0,11.2,0,16.9c0,4.2,2.5,6.6,6.7,6.7c4,0,8,0,12,0
	c11.8,0,23.6,0,35.5,0c3.7,0,6.5-1.8,6.8-4.9c0.4-4.3,0.1-8.8,0.1-13.4c-1.2,0-2.1,0-3.1,0c-13,0-26,0-39,0c-1.9,0-3.9,0-5.7-0.5
	C100.2,177.3,95.9,175.6,91.3,174z M131.5,75C131.5,75,131.5,75,131.5,75c6.2,0,12.5-0.3,18.7,0.1c4.5,0.3,7.6-1.1,10.3-4.5
	c1.6-2,1.7-2.3-0.6-3.3c-15.1-6.1-30.2-12.1-45.4-18.1c-0.9-0.3-2.3-0.1-3.1,0.4c-5.2,3.6-9.4,8.2-12.4,13.8
	c-0.6,1.2-0.8,3.1-0.3,4.4c1.6,4.9,5.5,6.9,10.4,7C116.5,75.1,124,75,131.5,75z M418.5,75.1C418.5,75,418.5,75,418.5,75.1
	c7.5,0,15,0.1,22.5-0.1c4.9-0.1,8.8-2.1,10.4-7c0.4-1.3,0.3-3.2-0.3-4.4c-3-5.6-7.2-10.2-12.4-13.8c-0.8-0.6-2.4-0.7-3.4-0.3
	c-14.5,5.7-29,11.5-43.5,17.3c-4.4,1.7-4.2,1.6-1,5.1c2.1,2.4,4.4,3.3,7.6,3.2C405.1,74.9,411.8,75.1,418.5,75.1z M440.4,1.8
	c-6.2,0-12.2,0-18.1,0c0,3.6,0,6.9,0,10.6c5.9-1.2,11.5-2.2,17.1-3.4c0.4-0.1,1-0.9,1-1.4C440.4,5.6,440.4,3.7,440.4,1.8z
	 M109.6,1.7c0,1.9-0.2,3.6,0.1,5.3c0.1,0.8,1,1.8,1.8,2c2.4,0.7,4.9,1.1,7.3,1.5c3,0.6,5.9,1.1,9,1.7c0-3.8,0-7.2,0-10.5
	C121.7,1.7,115.8,1.7,109.6,1.7z"/>
</svg>
